<svg version="1.1"
	 xmlns="http://www.w3.org/2000/svg" xmlns:xlink="http://www.w3.org/1999/xlink"
	 x="0px" y="0px" width="18px" height="98px" viewBox="-0.066 0.434 18 98"
	 style="overflow:visible;enable-background:new -0.066 0.434 18 98;" xml:space="preserve">
<style type="text/css">
<![CDATA[
	.st0{fill:#AABC02;}
	.st1{fill:#C1D82E;}
	.st2{fill:#C45353;}
	.st3{fill:#D0D0D0;}
]]>
</style>
<defs>
</defs>
<path class="st2" d="M12.333,89.434l4.25-4.248c0.469-0.47,0.469-1.23,0-1.699l-1.701-1.701c-0.469-0.469-1.229-0.469-1.698,0
	l-4.25,4.249l-4.249-4.249c-0.469-0.469-1.23-0.471-1.701,0l-1.698,1.699c-0.47,0.47-0.47,1.231,0,1.701l4.249,4.248l-4.248,4.248
	c-0.469,0.471-0.469,1.231,0,1.7l1.699,1.701c0.471,0.469,1.23,0.469,1.701,0l4.247-4.25l4.249,4.25c0.472,0.469,1.231,0.469,1.7,0
	l1.701-1.701c0.469-0.47,0.469-1.229,0-1.7L12.333,89.434z"/>
<path class="st3" d="M12.332,69.433l4.249-4.248c0.469-0.47,0.472-1.23,0-1.699l-1.698-1.7c-0.469-0.469-1.23-0.469-1.701,0
	l-4.249,4.249l-4.248-4.249c-0.47-0.469-1.23-0.47-1.699,0l-1.7,1.699c-0.469,0.47-0.469,1.23,0,1.7l4.248,4.248l-4.248,4.248
	c-0.469,0.471-0.469,1.231,0,1.7l1.7,1.7c0.47,0.47,1.229,0.47,1.7,0l4.247-4.249l4.249,4.249c0.471,0.47,1.23,0.47,1.701,0
	l1.698-1.7c0.469-0.47,0.469-1.229,0-1.7L12.332,69.433z"/>
<polygon class="st0" points="9,41 11.163,47.82 18,47.875 12.5,52.146 14.563,59 9,54.819 3.438,59 5.5,52.146 0,47.875
	6.837,47.82 "/>
<polygon class="st1" points="9,21 11.163,27.82 18,27.875 12.5,32.146 14.563,39 9,34.819 3.438,39 5.5,32.146 0,27.875
	6.837,27.82 "/>
<polygon class="st3" points="9,0 11.163,6.82 18,6.875 12.5,11.146 14.563,18 9,13.819 3.438,18 5.5,11.146 0,6.875 6.837,6.82 "/>
</svg>
